<svg width="296" height="132" viewBox="0 0 296 132" fill="none" xmlns="http://www.w3.org/2000/svg">
<path d="M8.17361 70.6858V82.2314H25.819V70.6858C25.819 69.0336 26.194 67.7946 26.9344 66.9781C27.6749 66.152 28.6557 65.739 29.8673 65.739C31.0982 65.739 32.0886 66.1424 32.8579 66.9589C33.6176 67.7753 34.0022 69.0144 34.0022 70.6858V102.441C34.0022 104.112 33.6176 105.352 32.8483 106.178C32.079 107.004 31.0886 107.417 29.8769 107.417C28.6461 107.417 27.6653 107.004 26.9344 106.168C26.2036 105.332 25.8382 104.093 25.8382 102.441V88.8783H8.17361V102.431C8.17361 104.103 7.78897 105.342 7.01969 106.168C6.25041 106.994 5.25996 107.407 4.04834 107.407C2.81749 107.407 1.83666 106.994 1.10584 106.158C0.365408 105.323 0 104.084 0 102.431V70.6858C0 69.0336 0.365408 67.7946 1.08661 66.9781C1.80781 66.152 2.79826 65.739 4.04834 65.739C5.27919 65.739 6.26964 66.1424 7.03892 66.9589C7.78897 67.7753 8.17361 69.0144 8.17361 70.6858Z" fill="#1D1D1B"/>
<path d="M69.3603 72.7124H50.9456V82.6059H67.8987C69.1487 82.6059 70.0719 82.8845 70.6873 83.4416C71.3027 83.9987 71.6104 84.7383 71.6104 85.6508C71.6104 86.5633 71.3123 87.3126 70.7065 87.8889C70.1007 88.4652 69.168 88.7534 67.8987 88.7534H50.9456V100.222H69.995C71.2739 100.222 72.2451 100.52 72.899 101.115C73.5529 101.711 73.8798 102.508 73.8798 103.498C73.8798 104.449 73.5529 105.227 72.899 105.822C72.2451 106.418 71.2835 106.715 69.995 106.715H47.782C46.003 106.715 44.7241 106.322 43.9452 105.534C43.1663 104.746 42.772 103.469 42.772 101.711V71.4253C42.772 70.2534 42.9451 69.2929 43.2913 68.5533C43.6375 67.8137 44.1856 67.2662 44.926 66.93C45.6665 66.5938 46.6184 66.4209 47.7724 66.4209H69.3507C70.6585 66.4209 71.6201 66.7091 72.2547 67.2854C72.8894 67.8617 73.2067 68.6205 73.2067 69.5522C73.2067 70.5032 72.8894 71.2716 72.2547 71.8479C71.6297 72.4243 70.6585 72.7124 69.3603 72.7124Z" fill="#1D1D1B"/>
<path d="M91.3421 89.4834H88.4765V102.431C88.4765 104.132 88.1015 105.39 87.3514 106.197C86.6014 107.004 85.6206 107.407 84.409 107.407C83.1012 107.407 82.1011 106.984 81.3799 106.139C80.6683 105.294 80.3029 104.055 80.3029 102.431V71.4253C80.3029 69.6675 80.6972 68.39 81.4857 67.6024C82.2742 66.8147 83.5531 66.4209 85.3129 66.4209H98.6022C100.439 66.4209 102.006 66.4977 103.304 66.6514C104.603 66.8051 105.785 67.1221 106.824 67.6024C108.093 68.1306 109.209 68.8991 110.18 69.8884C111.151 70.8778 111.892 72.0304 112.392 73.3368C112.892 74.6431 113.151 76.0359 113.151 77.5055C113.151 80.512 112.305 82.9133 110.603 84.7095C108.901 86.5057 106.333 87.7832 102.881 88.5324C104.333 89.3009 105.718 90.4343 107.035 91.9423C108.353 93.4408 109.536 95.0449 110.574 96.7354C111.613 98.426 112.42 99.9628 112.997 101.327C113.574 102.691 113.863 103.632 113.863 104.141C113.863 104.669 113.69 105.198 113.353 105.726C113.017 106.245 112.555 106.658 111.968 106.965C111.382 107.263 110.699 107.417 109.93 107.417C109.016 107.417 108.237 107.205 107.622 106.773C106.997 106.341 106.458 105.793 106.016 105.14C105.564 104.477 104.958 103.507 104.189 102.23L100.91 96.7834C99.7369 94.7855 98.6887 93.2679 97.756 92.2209C96.8328 91.1739 95.8905 90.4631 94.9385 90.0789C93.9961 89.6755 92.7941 89.4834 91.3421 89.4834ZM96.0251 72.5491H88.4861V83.6241H95.8039C97.7656 83.6241 99.4195 83.4512 100.756 83.115C102.093 82.7788 103.122 82.2025 103.824 81.3861C104.526 80.5696 104.881 79.4458 104.881 78.0146C104.881 76.9003 104.593 75.911 104.026 75.0561C103.458 74.2012 102.67 73.5673 101.66 73.1446C100.708 72.7508 98.833 72.5491 96.0251 72.5491Z" fill="#1D1D1B"/>
<path d="M203.984 107.644H191.657C189.878 107.644 188.608 107.24 187.849 106.453C187.089 105.655 186.704 104.387 186.704 102.649V72.3439C186.704 70.5669 187.089 69.2894 187.878 68.5113C188.657 67.7333 189.916 67.3395 191.666 67.3395H204.744C206.667 67.3395 208.34 67.4547 209.754 67.6949C211.168 67.935 212.437 68.3961 213.552 69.0684C214.504 69.6352 215.351 70.3556 216.081 71.2296C216.812 72.1037 217.38 73.0643 217.764 74.1113C218.149 75.1678 218.341 76.2821 218.341 77.4539C218.341 81.4882 216.322 84.437 212.283 86.3101C217.581 88.0006 220.235 91.276 220.235 96.1556C220.235 98.4128 219.659 100.44 218.505 102.245C217.351 104.051 215.793 105.386 213.822 106.241C212.591 106.75 211.177 107.115 209.581 107.327C207.975 107.538 206.11 107.644 203.984 107.644ZM194.878 73.4677V83.8895H202.369C204.408 83.8895 205.975 83.6974 207.09 83.3132C208.196 82.929 209.052 82.199 209.639 81.1136C210.1 80.3451 210.331 79.4807 210.331 78.5297C210.331 76.4934 209.61 75.139 208.158 74.4763C206.706 73.8039 204.494 73.4773 201.523 73.4773H194.878V73.4677ZM203.379 89.7488H194.878V101.515H203.657C209.177 101.515 211.937 99.527 211.937 95.5504C211.937 93.5141 211.225 92.0445 209.793 91.1224C208.36 90.2002 206.225 89.7488 203.379 89.7488Z" fill="#1D1D1B"/>
<path d="M253.882 73.631H235.467V83.5245H252.42C253.67 83.5245 254.594 83.8031 255.209 84.3602C255.824 84.9173 256.132 85.6569 256.132 86.5694C256.132 87.4819 255.834 88.2311 255.228 88.8075C254.622 89.3838 253.69 89.6719 252.42 89.6719H235.467V101.141H254.517C255.796 101.141 256.767 101.438 257.421 102.034C258.075 102.63 258.401 103.427 258.401 104.416C258.401 105.367 258.075 106.145 257.421 106.741C256.767 107.336 255.805 107.634 254.517 107.634H232.304C230.525 107.634 229.246 107.24 228.467 106.453C227.688 105.665 227.294 104.387 227.294 102.63V72.3439C227.294 71.172 227.467 70.2115 227.813 69.4719C228.159 68.7323 228.707 68.1847 229.448 67.8486C230.188 67.5124 231.14 67.3395 232.294 67.3395H253.872C255.18 67.3395 256.142 67.6276 256.776 68.204C257.411 68.7803 257.728 69.5391 257.728 70.4708C257.728 71.4218 257.411 72.1902 256.776 72.7665C256.151 73.3428 255.19 73.631 253.882 73.631Z" fill="#1D1D1B"/>
<path d="M291.48 73.631H273.066V83.5245H290.019C291.269 83.5245 292.192 83.8031 292.807 84.3602C293.423 84.9173 293.731 85.6569 293.731 86.5694C293.731 87.4819 293.432 88.2311 292.827 88.8075C292.221 89.3838 291.288 89.6719 290.019 89.6719H273.066V101.141H292.115C293.394 101.141 294.365 101.438 295.019 102.034C295.673 102.63 296 103.427 296 104.416C296 105.367 295.673 106.145 295.019 106.741C294.365 107.336 293.404 107.634 292.115 107.634H269.902C268.123 107.634 266.844 107.24 266.065 106.453C265.286 105.665 264.892 104.387 264.892 102.63V72.3439C264.892 71.172 265.065 70.2115 265.411 69.4719C265.758 68.7323 266.306 68.1847 267.046 67.8486C267.787 67.5124 268.739 67.3395 269.892 67.3395H291.471C292.779 67.3395 293.74 67.6276 294.375 68.204C295.009 68.7803 295.327 69.5391 295.327 70.4708C295.327 71.4218 295.009 72.1902 294.375 72.7665C293.75 73.3428 292.779 73.631 291.48 73.631Z" fill="#1D1D1B"/>
<path d="M163.222 23.0529C163.434 22.3709 163.703 21.2278 163.097 19.2587C162.732 18.0581 161.933 15.3974 160.28 13.6876L163.539 7.74191C164.087 6.91585 164.78 5.33097 164.549 4.37043C164.366 3.602 163.741 2.97766 162.712 2.82397C161.674 2.67028 160.991 3.47713 160.453 4.37043L156.875 10.7388C155.548 9.6918 154.443 9.16351 152.471 8.55837C147.577 7.16559 143.211 9.4997 142.49 9.97036L139.442 4.40885C139.038 3.53477 137.836 2.75673 136.874 2.83358C136.211 2.89121 135.605 3.36187 135.153 4.25517C134.691 5.16768 135.807 7.24244 136.288 8.14534L138.72 12.7463C138.72 12.7655 138.72 12.7847 138.711 12.8039C138.278 13.2458 132.528 19.3644 134.336 29.6806C134.345 29.7094 134.316 29.7286 134.287 29.7094C132.335 28.0765 129.21 25.8576 124.921 24.2535C119.969 22.3997 111.767 21.564 106.074 23.1393C104.257 23.6388 89.9096 27.8267 87.7075 39.3339C86.6497 44.8858 88.9095 49.4772 89.8134 51.2446C96.0446 63.4146 111.651 64.9322 112.324 64.9899C117.911 65.4509 122.585 64.0966 124.037 63.6643C128.172 62.4348 131.624 60.5042 134.701 58.7752C136.682 57.661 138.297 56.6428 139.422 55.9032C141.961 54.0494 145.952 51.1005 150.789 47.3928C162.001 38.796 163.01 37.4033 167.213 35.4822C169.838 34.2815 178.415 30.2473 188.041 32.9272C190.07 33.4939 194.541 34.7906 198.07 38.7768C198.84 39.6413 200.128 41.1301 200.946 43.4546C201.148 44.0214 202.677 48.5839 200.628 53.0984C197.965 58.9769 191.147 60.5906 187.954 61.3014C184.704 62.0314 181.348 62.1467 178.031 61.7913C175.8 61.5511 173.184 61.2053 170.299 60.6963C161.799 59.1978 159.962 57.8915 155.5 57.1903C152.779 56.7581 138.99 54.9619 128.777 64.1062C119.873 72.0786 119.402 83.2401 119.373 84.4215C119.344 85.5934 119.229 98.3877 129.633 106.965C139.134 114.803 152.914 115.428 162.885 109.338C168.145 106.13 172.559 100.981 175.194 93.7771C176.588 89.8581 176.925 86.5059 176.983 84.287C177.079 80.3777 176.377 77.5537 175.146 75.3637C174.204 73.6827 173.338 73.0392 172.434 72.8278C171.203 72.5397 170.126 73.116 169.982 73.2024C168.895 73.8076 168.482 74.7873 168.386 75.0659C168.376 75.0947 167.645 77.4096 169.136 78.7832C170.915 80.4257 170.588 89.6084 166.472 96.8605C165.674 98.2724 164.914 99.2138 164.664 99.5211C162.357 102.326 159.789 103.671 158.529 104.333C155.847 105.745 152.962 106.437 150.442 106.773C145.856 107.378 141.211 106.379 137.24 104.016C135.836 103.181 130.537 99.9918 127.864 93.4986C123.393 82.6253 130.306 72.4244 130.855 71.6368C132.21 69.9558 134.672 67.3624 138.48 65.4893C139.807 64.8362 142.153 63.8276 145.5 63.4146C155.779 62.1467 165.02 67.5833 176.194 68.6879C182.675 69.3219 188.204 68.7744 192.109 68.1116C193.714 67.8427 195.263 67.3528 196.705 66.594C199.696 65.0283 204.417 61.724 206.965 55.5862C207.321 54.7217 207.61 53.8765 207.84 53.0408C207.84 53.0408 208.667 50.0055 208.59 47.0855C208.427 41.3703 203.984 36.0009 203.503 35.4342C198.83 29.9111 192.81 28.1437 190.041 27.3753C177.627 23.9077 166.213 28.4799 161.905 31.2558C155.26 35.5398 150.115 39.3724 146.654 42.0811C142.788 45.0972 128.826 56.2106 121.133 58.0548C118.411 58.708 115.68 58.8232 115.68 58.8232C115.411 58.8232 112.469 58.9481 109.67 58.4294C108.315 58.1797 98.0351 56.2874 94.5733 47.9692C94.1695 46.9894 93.0348 44.1943 93.5733 40.6691C94.4579 34.8867 99.3717 30.0167 106.199 27.8651C106.199 27.8651 115.507 24.2631 124.97 28.7488C126.008 29.2387 128.999 30.7468 130.191 31.7649C130.287 31.8514 130.643 32.1491 131.162 32.4949C131.355 32.6198 132.114 33.1001 132.932 33.3882C133.576 33.6091 135.201 34.1663 136.768 33.3786C138.047 32.7351 138.576 31.5536 138.74 31.1886C139.259 30.036 139.192 28.9121 139.153 28.3838C139.124 27.9708 139.086 27.9996 139.009 27.2888C138.951 26.8086 138.855 25.896 138.894 24.7818C138.942 23.3602 139.182 22.2172 139.365 21.3815C139.403 21.2182 139.442 21.0453 139.461 20.9493C140.153 18.5095 141.874 16.6845 141.874 16.6845C141.874 16.6749 141.98 16.5788 142.076 16.4828C142.903 15.6567 145.586 13.2458 149.394 13.5243C152.327 13.7357 155.039 15.4934 156.424 17.7891C158.289 20.882 157.029 23.8213 159.087 24.9259C159.914 25.3678 161.193 25.4734 162.097 24.8875C162.818 24.3784 163.059 23.5715 163.222 23.0529Z" fill="url(#paint0_linear_72_501)"/>
<path d="M130.133 112.431C131.354 113.478 133.133 114.832 135.432 116.033C141.288 119.097 146.673 119.193 149.163 119.078C157.279 118.684 162.982 114.621 165.212 112.834C165.309 112.738 166.039 111.989 167.001 112.181C167.136 112.21 167.895 112.364 168.213 113.094C168.578 113.929 168.059 114.794 167.972 114.938C167.972 114.938 167.924 115.015 167.847 115.111C167.78 115.178 167.674 115.293 167.53 115.437C166.828 116.138 164.626 118.223 158.904 120.519C158.327 120.749 157.462 121.085 156.404 121.45C155.231 121.844 153.606 122.296 151.615 122.545C149.096 122.862 147.154 122.699 145.673 122.574C144.23 122.449 142.567 122.286 140.47 121.7C138.605 121.181 137.268 120.567 136.028 119.99C135.336 119.673 133.316 118.732 130.874 117.061C127.383 114.678 127.248 113.747 127.277 113.305C127.306 112.796 127.585 112.239 128.027 111.979C128.604 111.605 129.451 111.787 130.133 112.431Z" fill="#FEB501"/>
<path d="M159.578 124.534C159.443 124.37 159.241 124.121 158.885 124.063C158.337 123.967 157.914 124.351 157.866 124.399C156.578 125.331 153.327 127.415 148.692 127.646C148.644 127.646 148.587 127.646 148.529 127.646C148.24 127.646 147.317 127.655 147.038 127.646C142.404 127.425 139.153 125.341 137.865 124.399C137.807 124.351 137.394 123.957 136.846 124.063C136.49 124.13 136.278 124.38 136.153 124.534C135.557 125.254 135.701 126.253 135.749 126.512C135.769 126.589 135.807 126.705 135.865 126.829C135.99 127.089 136.144 127.29 136.557 127.665C136.759 127.857 137.028 128.088 137.336 128.337C139.096 129.605 142.673 131.584 147.865 131.45C153.058 131.574 156.635 129.596 158.395 128.337C158.712 128.088 158.972 127.857 159.174 127.665C159.587 127.281 159.741 127.089 159.866 126.829C159.924 126.705 159.962 126.589 159.982 126.512C160.03 126.253 160.174 125.264 159.578 124.534Z" fill="#FEB501"/>
<path d="M136.124 7.05033C138.073 7.05033 139.653 5.47206 139.653 3.52517C139.653 1.57827 138.073 0 136.124 0C134.175 0 132.595 1.57827 132.595 3.52517C132.595 5.47206 134.175 7.05033 136.124 7.05033Z" fill="#F38800"/>
<path d="M162.683 7.05033C164.632 7.05033 166.212 5.47206 166.212 3.52517C166.212 1.57827 164.632 0 162.683 0C160.734 0 159.154 1.57827 159.154 3.52517C159.154 5.47206 160.734 7.05033 162.683 7.05033Z" fill="#F38800"/>
<defs>
<linearGradient id="paint0_linear_72_501" x1="149.968" y1="11.0287" x2="143.097" y2="129.241" gradientUnits="userSpaceOnUse">
<stop/>
<stop offset="0.1256" stop-color="#FF9A00"/>
<stop offset="0.7518" stop-color="#F9B233"/>
<stop offset="0.9207" stop-color="#FEC400"/>
</linearGradient>
</defs>
</svg>
